<svg width="1200" height="720" viewBox="0 0 1200 720" fill="none" xmlns="http://www.w3.org/2000/svg">
  <rect width="1200" height="720" rx="32" fill="#F4F8FC"/>
  <rect x="90" y="84" width="1020" height="552" rx="28" fill="white" stroke="#D7E2F0" stroke-width="8"/>
  <circle cx="514" cy="366" r="136" stroke="#1F2937" stroke-width="8"/>
  <circle cx="514" cy="366" r="92" stroke="#94A3B8" stroke-width="8"/>
  <path d="M654 256L760 218L816 304L740 426L646 410" stroke="#1F2937" stroke-width="8" stroke-linejoin="round"/>
  <path d="M696 274L758 254L786 304L742 382L684 372" stroke="#F97316" stroke-width="8" stroke-linejoin="round"/>
  <rect x="314" y="270" width="84" height="192" rx="20" stroke="#1F2937" stroke-width="8"/>
  <path d="M398 314H444" stroke="#1F2937" stroke-width="8" stroke-linecap="round"/>
  <path d="M446 316L514 316" stroke="#F97316" stroke-width="8" stroke-linecap="round" stroke-dasharray="10 12"/>
  <path d="M872 212H1036" stroke="#94A3B8" stroke-width="6" stroke-linecap="round"/>
  <path d="M872 256H1012" stroke="#CBD5E1" stroke-width="6" stroke-linecap="round"/>
  <path d="M872 300H986" stroke="#CBD5E1" stroke-width="6" stroke-linecap="round"/>
  <circle cx="854" cy="212" r="10" fill="#F97316"/>
  <circle cx="854" cy="256" r="10" fill="#CBD5E1"/>
  <circle cx="854" cy="300" r="10" fill="#CBD5E1"/>
  <path d="M210 522L284 448" stroke="#F97316" stroke-width="8" stroke-linecap="round"/>
  <path d="M246 540L284 448" stroke="#F97316" stroke-width="8" stroke-linecap="round"/>
</svg>
